<svg id="Layer_1" data-name="Layer 1" xmlns="http://www.w3.org/2000/svg" viewBox="0 0 152.26 66.84"><defs><style>.cls-1{fill:#009639;}</style></defs><title>logo-suite-rgb-source-03-final-size</title><path class="cls-1" d="M58.37,32.74H72.66L66.41,44.28a.57.57,0,0,1-.59.34H53.7a.55.55,0,0,1-.56-.32L47.31,33.8a.68.68,0,0,1,0-.78l5.52-10.19a.55.55,0,0,1,.56-.34H66.06a.49.49,0,0,1,.48.25l4.74,7.94h-4.9a.42.42,0,0,1-.4-.23l-2.12-3.58a.61.61,0,0,0-.59-.32H56.36a.54.54,0,0,0-.54.32l-3.53,6.29a.5.5,0,0,0,0,.56l3.53,6.45a.52.52,0,0,0,.54.32h6.9a.51.51,0,0,0,.52-.29L65.68,37H58.37a2.12,2.12,0,0,1,0-4.24Z"/><path class="cls-1" d="M58.37,32.74H72.66L66.41,44.28a.57.57,0,0,1-.59.34H53.7a.55.55,0,0,1-.56-.32L47.31,33.8a.68.68,0,0,1,0-.78l5.52-10.19a.55.55,0,0,1,.56-.34H66.06a.49.49,0,0,1,.48.25l4.74,7.94h-4.9a.42.42,0,0,1-.4-.23l-2.12-3.58a.61.61,0,0,0-.59-.32H56.36a.54.54,0,0,0-.54.32l-3.53,6.29a.5.5,0,0,0,0,.56l3.53,6.45a.52.52,0,0,0,.54.32h6.9a.51.51,0,0,0,.52-.29L65.68,37H58.37a2.12,2.12,0,0,1,0-4.24Z"/><path class="cls-1" d="M74.67,24.54v5.89a.26.26,0,0,0,.26.25h3.94a.25.25,0,0,0,.25-.25V24.54h0a2.23,2.23,0,1,0-4.46,0Z"/><path class="cls-1" d="M74.67,42.49V33a.26.26,0,0,1,.26-.26h3.94a.26.26,0,0,1,.26.26v9.49h0a2.23,2.23,0,0,1-4.46,0Z"/><path class="cls-1" d="M125.8,44l-6-6-.36-.37-.32-.31a.25.25,0,0,0-.36,0l-.26.26-.42.42-6,6h0a2.54,2.54,0,0,1-3.59-3.59h0l6.86-6.85-6.85-6.85h0a2.53,2.53,0,0,1,3.59-3.58h0l6,6,.51.52.17.16a.25.25,0,0,0,.36,0l.27-.26.41-.42,6-6h0a2.53,2.53,0,1,1,3.59,3.58l-6.85,6.85,6.85,6.85h0A2.54,2.54,0,1,1,125.8,44Z"/><path class="cls-1" d="M100.21,42.18a2.54,2.54,0,0,0,5.07,0h0V24.77a2.64,2.64,0,0,0-2.88-2.46,4.54,4.54,0,0,0-3.46,1.54l-.76.92L87.58,37.45V24.84h0a2.54,2.54,0,0,0-5.07,0h0V42.25a2.64,2.64,0,0,0,2.87,2.46,4.5,4.5,0,0,0,3.46-1.54l11.36-13.6V42.18Z"/><path class="cls-1" d="M27.2,42.18a2.54,2.54,0,0,1-5.07,0h0V24.77A2.64,2.64,0,0,1,25,22.31a4.54,4.54,0,0,1,3.46,1.54l.76.92,10.6,12.68V24.84h0a2.54,2.54,0,0,1,5.07,0h0V42.25A2.64,2.64,0,0,1,42,44.71a4.49,4.49,0,0,1-3.45-1.54L27.2,29.57V42.18Z"/></svg>