<svg width="450" height="450" viewBox="0 0 450 450" fill="none" xmlns="http://www.w3.org/2000/svg">
<path d="M300 -6.55671e-06L300 300L150 300L150 -1.31134e-05L300 -6.55671e-06Z" fill="#5A86CB"/>
<path d="M150 150L150 450L-1.96701e-05 450L-6.55671e-06 150L150 150Z" fill="#5A86CB"/>
<path d="M450 150L150 150L150 -1.31134e-05L450 1.52588e-05L450 150Z" fill="#5A86CB"/>
<path d="M300 300L-1.31134e-05 300L-6.55671e-06 150L300 150L300 300Z" fill="#5A86CB"/>
<rect x="300" y="150" width="150" height="150" transform="rotate(90 300 150)" fill="url(#paint0_linear)"/>
<rect x="150" y="300" width="150" height="150" transform="rotate(90 150 300)" fill="url(#paint1_linear)"/>
<defs>
<linearGradient id="paint0_linear" x1="300" y1="150" x2="360" y2="180" gradientUnits="userSpaceOnUse">
<stop stop-opacity="0.35"/>
<stop offset="1" stop-opacity="0"/>
</linearGradient>
<linearGradient id="paint1_linear" x1="150" y1="300" x2="210" y2="330" gradientUnits="userSpaceOnUse">
<stop stop-opacity="0.35"/>
<stop offset="1" stop-opacity="0"/>
</linearGradient>
</defs>
</svg>
